<svg width="263" height="22" viewBox="0 0 263 22" fill="none" xmlns="http://www.w3.org/2000/svg">
<g clip-path="url(#clip0_843_120910)">
<path fill-rule="evenodd" clip-rule="evenodd" d="M104.044 11.2334C104.044 8.84094 102.871 6.95312 100.63 6.95312C98.3793 6.95312 97.0176 8.84094 97.0176 11.2148C97.0176 14.0278 98.6252 15.4483 100.933 15.4483C102.058 15.4483 102.909 15.1959 103.552 14.8408V12.9717C102.909 13.2895 102.172 13.4857 101.235 13.4857C100.318 13.4857 99.5047 13.168 99.4007 12.0652H104.025C104.025 11.9437 104.044 11.4577 104.044 11.2334ZM99.3723 10.3456C99.3723 9.28953 100.025 8.85029 100.621 8.85029C101.197 8.85029 101.812 9.28953 101.812 10.3456H99.3723Z" fill="#8792A2"/>
<path fill-rule="evenodd" clip-rule="evenodd" d="M93.3675 6.95312C92.4407 6.95312 91.845 7.38302 91.514 7.68208L91.3911 7.10265H89.3105V17.9997L91.6748 17.5043L91.6842 14.8595C92.0247 15.1025 92.5259 15.4483 93.3581 15.4483C95.0509 15.4483 96.5924 14.1025 96.5924 11.14C96.5829 8.42973 95.0225 6.95312 93.3675 6.95312ZM92.8002 13.3922C92.2422 13.3922 91.9112 13.196 91.6842 12.953L91.6748 9.48579C91.9206 9.21477 92.2611 9.02786 92.8002 9.02786C93.6607 9.02786 94.2565 9.98111 94.2565 11.2054C94.2565 12.4577 93.6702 13.3922 92.8002 13.3922Z" fill="#8792A2"/>
<path fill-rule="evenodd" clip-rule="evenodd" d="M86.0586 6.40183L88.4323 5.89716V4L86.0586 4.49532V6.40183Z" fill="#8792A2"/>
<path d="M88.4323 7.11133H86.0586V15.2887H88.4323V7.11133Z" fill="#8792A2"/>
<path fill-rule="evenodd" clip-rule="evenodd" d="M83.5143 7.80381L83.363 7.11223H81.3203V15.2897H83.6845V9.74769C84.2425 9.02808 85.1882 9.15892 85.4813 9.26172V7.11223C85.1787 7.00008 84.0723 6.79448 83.5143 7.80381Z" fill="#8792A2"/>
<path fill-rule="evenodd" clip-rule="evenodd" d="M78.7857 5.08398L76.4782 5.56996L76.4688 13.0558C76.4688 14.439 77.5184 15.4576 78.9181 15.4576C79.6935 15.4576 80.261 15.3175 80.5731 15.1493V13.2521C80.2705 13.3736 78.7762 13.8034 78.7762 12.4203V9.10261H80.5731V7.11199H78.7762L78.7857 5.08398Z" fill="#8792A2"/>
<path fill-rule="evenodd" clip-rule="evenodd" d="M72.3926 9.4858C72.3926 9.12131 72.6952 8.98113 73.1964 8.98113C73.9151 8.98113 74.823 9.19608 75.5417 9.57924V7.38302C74.7568 7.07462 73.9814 6.95312 73.1964 6.95312C71.2767 6.95312 70 7.94376 70 9.59794C70 12.1773 73.5936 11.7661 73.5936 12.8782C73.5936 13.3082 73.2153 13.4483 72.6858 13.4483C71.9008 13.4483 70.8984 13.1306 70.104 12.7007V14.925C70.9835 15.2988 71.8725 15.4577 72.6858 15.4577C74.6528 15.4577 76.0051 14.495 76.0051 12.8222C75.9957 10.0372 72.3926 10.5325 72.3926 9.4858Z" fill="#8792A2"/>
</g>
<path d="M0.779297 15H2.0918V12.1113H3.92578C5.58398 12.1113 6.73242 10.9805 6.73242 9.32812V9.31641C6.73242 7.6582 5.58398 6.54492 3.92578 6.54492H0.779297V15ZM3.59766 7.65234C4.74023 7.65234 5.39648 8.26758 5.39648 9.32227V9.33398C5.39648 10.3945 4.74023 11.0098 3.59766 11.0098H2.0918V7.65234H3.59766ZM10.2874 15.123C12.0511 15.123 13.2112 13.9043 13.2112 11.918V11.9062C13.2112 9.93164 12.0394 8.71875 10.2816 8.71875C8.52961 8.71875 7.36359 9.9375 7.36359 11.9062V11.918C7.36359 13.8984 8.51789 15.123 10.2874 15.123ZM10.2933 14.0625C9.30305 14.0625 8.65852 13.2832 8.65852 11.918V11.9062C8.65852 10.5586 9.30891 9.7793 10.2816 9.7793C11.2718 9.7793 11.9163 10.5586 11.9163 11.9062V11.918C11.9163 13.2773 11.2835 14.0625 10.2933 14.0625ZM15.5592 15H16.8659L18.1491 10.3828H18.1784L19.4733 15H20.7916L22.4791 8.83594H21.2252L20.1002 13.6875H20.0709L18.7819 8.83594H17.5631L16.2799 13.6875H16.2565L15.1315 8.83594H13.8659L15.5592 15ZM26.0283 15.123C27.5224 15.123 28.4716 14.2324 28.6709 13.2539L28.6826 13.1895H27.4814L27.4638 13.2363C27.3056 13.6992 26.8076 14.0859 26.0576 14.0859C25.0498 14.0859 24.4111 13.4062 24.3877 12.2402H28.7529V11.8125C28.7529 9.96094 27.6923 8.71875 25.9638 8.71875C24.2353 8.71875 23.122 10.0078 23.122 11.9355V11.9414C23.122 13.8867 24.2177 15.123 26.0283 15.123ZM25.9697 9.75586C26.7959 9.75586 27.3935 10.2773 27.499 11.3438H24.4052C24.5166 10.3125 25.1494 9.75586 25.9697 9.75586ZM29.9173 15H31.1829V11.3262C31.1829 10.4062 31.6868 9.87305 32.5012 9.87305C32.7473 9.87305 32.97 9.90234 33.0696 9.94336V8.76562C32.97 8.74805 32.8118 8.71875 32.6302 8.71875C31.927 8.71875 31.4114 9.16992 31.2122 9.89062H31.1829V8.83594H29.9173V15ZM36.3961 15.123C37.8902 15.123 38.8395 14.2324 39.0387 13.2539L39.0504 13.1895H37.8492L37.8316 13.2363C37.6734 13.6992 37.1754 14.0859 36.4254 14.0859C35.4176 14.0859 34.7789 13.4062 34.7555 12.2402H39.1207V11.8125C39.1207 9.96094 38.0602 8.71875 36.3316 8.71875C34.6031 8.71875 33.4898 10.0078 33.4898 11.9355V11.9414C33.4898 13.8867 34.5855 15.123 36.3961 15.123ZM36.3375 9.75586C37.1637 9.75586 37.7613 10.2773 37.8668 11.3438H34.773C34.8844 10.3125 35.5172 9.75586 36.3375 9.75586ZM42.5878 15.123C43.4726 15.123 44.1523 14.6777 44.5214 13.957H44.5448V15H45.8163V6.54492H44.5448V9.88477H44.5214C44.1523 9.1582 43.4491 8.71875 42.5761 8.71875C41.0292 8.71875 40.0097 9.94922 40.0097 11.9121V11.918C40.0097 13.8809 41.0175 15.123 42.5878 15.123ZM42.9218 14.0332C41.9198 14.0332 41.3046 13.2305 41.3046 11.918V11.9121C41.3046 10.6113 41.9257 9.80273 42.9218 9.80273C43.871 9.80273 44.5507 10.6348 44.5507 11.9121V11.918C44.5507 13.2012 43.8769 14.0332 42.9218 14.0332ZM53.19 15.123C54.7545 15.123 55.7681 13.8809 55.7681 11.918V11.9121C55.7681 9.94922 54.7486 8.71875 53.2017 8.71875C52.3287 8.71875 51.6255 9.1582 51.2564 9.88477H51.2271V6.54492H49.9615V15H51.2271V13.957H51.2564C51.6197 14.6777 52.3052 15.123 53.19 15.123ZM52.856 14.0332C51.8951 14.0332 51.2212 13.2012 51.2212 11.918V11.9121C51.2212 10.6348 51.9009 9.80273 52.856 9.80273C53.8521 9.80273 54.4732 10.6113 54.4732 11.9121V11.918C54.4732 13.2305 53.8521 14.0332 52.856 14.0332ZM57.4188 17.0566C58.6259 17.0566 59.2704 16.5645 59.7274 15.2871L62.0243 8.83594H60.6884L59.1356 13.8516H59.0946L57.5419 8.83594H56.1708L58.4149 15.0059L58.3095 15.2988C58.0985 15.8965 57.7704 16.0547 57.1727 16.0547C57.0028 16.0547 56.8563 16.0312 56.7567 16.0078V16.998C56.9091 17.0273 57.1727 17.0566 57.4188 17.0566Z" fill="#8792A2"/>
<path d="M168.877 15H170.189V7.67578H172.773V6.54492H166.287V7.67578H168.877V15ZM174.992 15.123C176.487 15.123 177.436 14.2324 177.635 13.2539L177.647 13.1895H176.446L176.428 13.2363C176.27 13.6992 175.772 14.0859 175.022 14.0859C174.014 14.0859 173.375 13.4062 173.352 12.2402H177.717V11.8125C177.717 9.96094 176.657 8.71875 174.928 8.71875C173.2 8.71875 172.086 10.0078 172.086 11.9355V11.9414C172.086 13.8867 173.182 15.123 174.992 15.123ZM174.934 9.75586C175.76 9.75586 176.358 10.2773 176.463 11.3438H173.369C173.481 10.3125 174.114 9.75586 174.934 9.75586ZM178.881 15H180.147V11.3262C180.147 10.4062 180.651 9.87305 181.465 9.87305C181.712 9.87305 181.934 9.90234 182.034 9.94336V8.76562C181.934 8.74805 181.776 8.71875 181.594 8.71875C180.891 8.71875 180.376 9.16992 180.176 9.89062H180.147V8.83594H178.881V15ZM182.999 15H184.265V11.1914C184.265 10.3945 184.798 9.80273 185.548 9.80273C186.263 9.80273 186.714 10.2598 186.714 10.9746V15H187.956V11.1445C187.956 10.3652 188.478 9.80273 189.228 9.80273C189.978 9.80273 190.405 10.2656 190.405 11.0684V15H191.677V10.7637C191.677 9.52734 190.88 8.71875 189.661 8.71875C188.782 8.71875 188.056 9.18164 187.739 9.93164H187.71C187.464 9.1582 186.843 8.71875 185.993 8.71875C185.185 8.71875 184.558 9.14648 184.294 9.79102H184.265V8.83594H182.999V15ZM195.39 15.123C196.843 15.123 197.898 14.3496 197.898 13.2246V13.2188C197.898 12.334 197.417 11.8359 196.157 11.543L195.156 11.3145C194.493 11.1562 194.241 10.8984 194.241 10.5176V10.5117C194.241 10.0195 194.669 9.69727 195.349 9.69727C196.064 9.69727 196.486 10.0723 196.562 10.6113L196.568 10.6523H197.757L197.751 10.582C197.687 9.5332 196.808 8.71875 195.349 8.71875C193.931 8.71875 192.97 9.47461 192.97 10.5762V10.582C192.97 11.4785 193.55 12.041 194.722 12.3105L195.73 12.5391C196.392 12.6973 196.615 12.9258 196.615 13.3242V13.3301C196.615 13.8281 196.157 14.1445 195.396 14.1445C194.616 14.1445 194.195 13.8105 194.077 13.2422L194.066 13.1836H192.812L192.818 13.2363C192.947 14.3613 193.849 15.123 195.39 15.123Z" fill="#8792A2"/>
<path d="M223.779 15H225.092V12.1113H226.926C228.584 12.1113 229.732 10.9805 229.732 9.32812V9.31641C229.732 7.6582 228.584 6.54492 226.926 6.54492H223.779V15ZM226.598 7.65234C227.74 7.65234 228.396 8.26758 228.396 9.32227V9.33398C228.396 10.3945 227.74 11.0098 226.598 11.0098H225.092V7.65234H226.598ZM230.909 15H232.174V11.3262C232.174 10.4062 232.678 9.87305 233.492 9.87305C233.739 9.87305 233.961 9.90234 234.061 9.94336V8.76562C233.961 8.74805 233.803 8.71875 233.621 8.71875C232.918 8.71875 232.403 9.16992 232.203 9.89062H232.174V8.83594H230.909V15ZM235.712 7.88672C236.128 7.88672 236.45 7.55859 236.45 7.16016C236.45 6.75586 236.128 6.42773 235.712 6.42773C235.301 6.42773 234.973 6.75586 234.973 7.16016C234.973 7.55859 235.301 7.88672 235.712 7.88672ZM235.079 15H236.344V8.83594H235.079V15ZM239.524 15H240.884L243.093 8.83594H241.774L240.227 13.7637H240.198L238.651 8.83594H237.304L239.524 15ZM245.681 15.1113C246.495 15.1113 247.21 14.6895 247.568 14.0273H247.591V15H248.863V10.752C248.863 9.51562 247.907 8.71875 246.402 8.71875C244.884 8.71875 243.964 9.5332 243.876 10.5938L243.87 10.6582H245.066L245.077 10.6055C245.183 10.1133 245.634 9.76758 246.366 9.76758C247.152 9.76758 247.591 10.1777 247.591 10.8574V11.3203L245.915 11.4199C244.456 11.5078 243.624 12.1641 243.624 13.2363V13.248C243.624 14.3555 244.45 15.1113 245.681 15.1113ZM244.902 13.2188V13.207C244.902 12.6855 245.324 12.3516 246.085 12.3047L247.591 12.2109V12.6914C247.591 13.4941 246.917 14.0977 246.027 14.0977C245.347 14.0977 244.902 13.7578 244.902 13.2188ZM252.921 15.123C254.404 15.123 255.435 14.1738 255.57 12.9375L255.576 12.8965H254.357L254.351 12.9434C254.199 13.6113 253.701 14.0625 252.921 14.0625C251.943 14.0625 251.293 13.2715 251.293 11.9238V11.918C251.293 10.5996 251.931 9.7793 252.916 9.7793C253.742 9.7793 254.211 10.2891 254.345 10.8926L254.357 10.9395H255.564L255.558 10.8984C255.453 9.73828 254.492 8.71875 252.904 8.71875C251.146 8.71875 249.998 9.95508 249.998 11.9062V11.9121C249.998 13.8867 251.123 15.123 252.921 15.123ZM257.379 17.0566C258.586 17.0566 259.23 16.5645 259.687 15.2871L261.984 8.83594H260.648L259.096 13.8516H259.055L257.502 8.83594H256.131L258.375 15.0059L258.269 15.2988C258.059 15.8965 257.73 16.0547 257.133 16.0547C256.963 16.0547 256.816 16.0312 256.717 16.0078V16.998C256.869 17.0273 257.133 17.0566 257.379 17.0566Z" fill="#8792A2"/>
<line x1="144.5" y1="1" x2="144.5" y2="21" stroke="#8792A2"/>
<defs>
<clipPath id="clip0_843_120910">
<rect width="34" height="14" fill="white" transform="translate(70 4)"/>
</clipPath>
</defs>
</svg>
