<svg width="268" height="230" viewBox="0 0 268 230" fill="none" xmlns="http://www.w3.org/2000/svg">
<g id="Illustration">
<g id="Chair4">
<path id="Path" fill-rule="evenodd" clip-rule="evenodd" d="M181.788 145.933L171.252 229.222L176.776 229.149L187.312 146.712L181.788 145.933Z" fill="#C5C5C5"/>
<path id="Path_2" fill-rule="evenodd" clip-rule="evenodd" d="M186.267 145.933L196.803 229.222L191.279 229.149L180.743 146.712L186.267 145.933Z" fill="#C3C3C3"/>
<path id="Path_3" fill-rule="evenodd" clip-rule="evenodd" d="M218.384 145.933L228.92 229.222L223.396 229.149L212.86 146.712L218.384 145.933Z" fill="#C3C3C3"/>
<path id="Path_4" fill-rule="evenodd" clip-rule="evenodd" d="M147.102 159.023C142.296 159.023 138.4 155.128 138.4 150.322C138.4 145.516 142.296 141.62 147.102 141.62H181.065C186.786 141.62 191.569 137.267 192.104 131.57L197.514 74.0151C198.05 68.3185 202.832 63.9648 208.554 63.9648H228.626C235.084 63.9648 240.176 69.4625 239.681 75.9018L234.084 148.784C233.641 154.562 228.823 159.023 223.029 159.023H147.102Z" fill="#C5C5C5"/>
<path id="Combined Shape" fill-rule="evenodd" clip-rule="evenodd" d="M138.402 150.248C138.451 150.248 138.501 150.249 138.55 150.249H214.27C220.064 150.249 224.881 145.789 225.326 140.012L230.918 67.3954C231.002 66.2973 230.924 65.2266 230.705 64.2059C229.96 64.048 229.186 63.9648 228.392 63.9648H208.422C202.702 63.9648 197.92 68.3168 197.383 74.0122L191.978 131.352C191.441 137.048 186.659 141.4 180.939 141.4H147.079C142.286 141.4 138.4 145.285 138.4 150.079C138.4 150.135 138.401 150.191 138.402 150.248Z" fill="#B2B0B0"/>
</g>
<g id="Wom3.4">
<g id="LLeg">
<path id="Path_5" fill-rule="evenodd" clip-rule="evenodd" d="M145.418 201.86C145.418 201.86 149.994 212.831 146.243 215.739C142.487 218.648 135.181 225.841 135.181 225.841L158.852 220.707L153.008 200.579L145.418 201.86Z" fill="url(#paint0_linear_773_108489)"/>
<path id="Path_6" fill-rule="evenodd" clip-rule="evenodd" d="M146.778 209.083C146.778 209.083 147.359 214.232 145.68 215.989C144.002 217.745 134.913 224.432 134.201 225.701C133.49 226.971 134.763 228.371 134.763 228.371C134.763 228.371 144.579 229.224 148.994 226.541C152.182 224.603 156.935 221.124 156.935 221.124L158.194 224.546L161.763 224.4C161.763 224.4 162.236 220.184 161.389 218.163C160.542 216.141 156.181 205.853 156.181 205.853C156.181 205.853 154.502 207.36 152.718 208.12C150.934 208.879 148.699 210.959 148.699 210.959L146.778 209.083Z" fill="#323740"/>
<path id="Path_7" fill-rule="evenodd" clip-rule="evenodd" d="M185.016 120.518C177.057 120.873 132.764 130.657 124.717 132.319C116.67 133.982 109.866 142.976 116.002 153.392C122.895 165.083 140.678 198.287 144.996 205.772C147.133 209.477 157.914 207.4 155.381 201.182C150.66 189.59 148.468 160.47 136.432 149.853C136.432 149.853 176.909 156.888 194.393 148.829C207.101 142.971 204.226 119.66 185.016 120.518Z" fill="#42474F"/>
</g>
<g id="LArm">
<path id="Path_8" fill-rule="evenodd" clip-rule="evenodd" d="M129.5 69.1637C129.5 69.1637 129.59 62.6967 127.325 59.3169C125.06 55.9372 124.97 52.3472 123.256 52.4647C121.541 52.5822 123.239 60.9267 123.239 60.9267C123.239 60.9267 121.064 60.0968 119.501 59.047C117.939 57.9973 113.201 52.8223 112.093 53.7394C110.216 55.3019 113.24 64.1158 114.887 65.8779C116.539 67.6406 125.566 73.4369 125.566 73.4369L147.675 96.0156L151.826 84.5454L129.5 69.1637Z" fill="#FFE0D1"/>
<path id="Path_9" fill-rule="evenodd" clip-rule="evenodd" d="M178.407 67.031C174.705 75.6063 167.927 91.3595 165.132 96.0594C161.63 101.945 156.108 104.539 149.642 100.171C147.926 99.0121 142.696 94.5826 142.696 94.5826L149.025 80.674L153.129 84.0572C153.129 84.0572 160.077 66.2705 165.665 55.9669C170.506 47.0525 184.042 53.9943 178.407 67.031Z" fill="#FFB66F"/>
<path id="Path_10" fill-rule="evenodd" clip-rule="evenodd" d="M153.057 84.067C153.057 84.067 151.191 90.388 150.754 90.022C150.318 89.6561 151.088 82.415 151.088 82.415L153.057 84.067Z" fill="black" fill-opacity="0.159856"/>
<path id="Path 65" fill-rule="evenodd" clip-rule="evenodd" d="M150.598 81.4439L145.306 99.1438L139.685 94.738L147.508 79.0469L150.598 81.4439Z" fill="#FFEDC2"/>
</g>
<g id="Head">
<g id="Group 21">
<path id="Path_11" fill-rule="evenodd" clip-rule="evenodd" d="M185.115 7.19518C185.115 7.19518 187.895 2.61034 192.304 2.95468C196.713 3.29903 202.063 10.0171 201.783 17.4603C201.512 24.9026 203.153 26.0734 206.315 30.3778C214.815 41.9586 201.68 55.5158 201.68 55.5158L184.226 55.5203L183.561 23.0549L185.115 7.19518Z" fill="#42474F"/>
<path id="Path 50" fill-rule="evenodd" clip-rule="evenodd" d="M192.039 9.87853C203.933 17.9977 197.117 27.4198 195.926 29.632C193.637 45.7293 198.356 46.556 205.475 50.1531L202.998 54.5786L192.795 52.6581L184.19 10.6912L192.039 9.87853Z" fill="black" fill-opacity="0.199355"/>
</g>
<path id="Path_12" fill-rule="evenodd" clip-rule="evenodd" d="M197.652 49.0629C197.652 49.0629 191.59 47.846 191.41 39.3526C191.23 30.8592 192.228 27.9599 192.228 27.9599L180.796 27.7539C180.796 27.7539 180.672 37.2197 180.67 40.6435C180.665 48.9684 174.249 49.934 174.249 49.934C174.249 49.934 175.583 56.5193 185.942 57.1011C194.03 57.556 197.652 49.0629 197.652 49.0629Z" fill="#F9C7B0"/>
<g id="Group 20">
<path id="Path_13" fill-rule="evenodd" clip-rule="evenodd" d="M191.805 9.60137C192.221 4.70247 184.136 3.51115 182.64 7.29497C182.64 7.29497 182.228 10.667 184.86 11.9829C188.418 13.7556 191.805 9.60137 191.805 9.60137Z" fill="#FB9934"/>
<path id="Path_14" fill-rule="evenodd" clip-rule="evenodd" d="M192.882 22.2191C197.83 20.966 198.566 28.4324 193.382 29.524C193.382 29.524 192.575 40.5245 182.125 42.7457C173.638 44.5496 170.519 32.5913 169.93 30.1987C169.301 27.6477 167.497 19.2117 167.497 19.2117L191.365 14.1268L192.882 22.2191Z" fill="#FFE0D1"/>
<path id="Path_15" fill-rule="evenodd" clip-rule="evenodd" d="M191.219 27.274C190.321 27.2227 189.09 22.5618 189.09 22.5618C186.441 22.5981 185.872 22.1201 183.283 19.3813C175.139 23.0104 169.465 24.796 170.043 31.1932C170.043 31.1932 160.575 18.151 170.711 10.6456C179.627 4.05053 190.941 6.06134 194.428 13.5282C196.894 18.7978 196.283 23.1827 196.283 23.1827C196.283 23.1827 194.553 21.4006 192.539 22.3656C190.526 23.3305 192.118 27.3254 191.219 27.274Z" fill="#42474F"/>
<path id="Path_16" d="M182.662 35.3574C182.662 35.3574 180.62 37.9913 177.319 36.6331" stroke="#F77B7B" stroke-width="1.5" stroke-linecap="round"/>
<path id="Path_17" d="M181.537 38.1438C180.839 38.6653 180.099 38.8498 179.357 38.6354" stroke="#F49494" stroke-linecap="round"/>
<path id="Path 8" d="M193.21 26.2493C192.91 25.0903 193.07 24.0852 194.225 23.6445" stroke="#F77B7B" stroke-linecap="round"/>
</g>
</g>
<g id="Group 19">
<path id="Path_18" fill-rule="evenodd" clip-rule="evenodd" d="M176.644 48.8012C176.505 48.7945 171.616 50.9368 171.053 51.7627C167.385 57.1433 160.651 76.0811 160.305 80.1894C159.914 84.9283 166.745 92.4772 166.829 99.3374C166.903 106.199 163.907 126.857 165.069 128.787C166.223 130.716 173.802 139.883 175.383 139.92C176.973 139.958 178.16 135.145 180.568 135.25C182.968 135.354 187.971 141.735 190.128 141.689C192.276 141.643 214.539 127.539 212.837 123.521C211.126 119.502 203.184 109.516 203.994 104.041C204.793 98.5665 211.182 78.3577 213.488 71.4798C215.785 64.6018 217.636 59.1228 213.349 56.1632C209.062 53.2036 195.113 47.79 195.113 47.79L182.623 54.7764C182.623 54.7764 177.369 48.8361 176.644 48.8012Z" fill="#FF9F43"/>
<path id="Path_19" fill-rule="evenodd" clip-rule="evenodd" d="M181.083 54.582C177.337 67.0387 172.197 79.3128 170.138 90.9933L176.126 87.7666L181.65 91.9522C181.26 79.8085 183.299 67.0576 184.236 54.582H181.083Z" fill="#FFF6E1"/>
<path id="Path_20" fill-rule="evenodd" clip-rule="evenodd" d="M202.963 64.1463L203.106 65.1536C204.784 77.6629 202.798 92.8423 199.356 95.1581C195.843 97.5222 182.17 95.2022 182.17 97.0744C182.17 98.9466 201.066 116.104 197.964 124.306C196.258 128.816 196.829 132.827 199.677 136.338L200.504 135.782C206.958 131.405 213.81 125.816 212.837 123.52C211.126 119.502 203.185 109.515 203.994 104.04C204.761 98.7847 210.68 79.9502 213.193 72.3666L213.993 69.9623C214.923 67.1431 215.698 64.5893 215.885 62.3859L215.307 62.0115C206.078 56.0953 201.964 56.807 202.963 64.1463Z" fill="black" fill-opacity="0.159856"/>
<path id="Path_21" fill-rule="evenodd" clip-rule="evenodd" d="M197.418 48.6722L195.113 47.79L182.35 54.4149C182.35 54.4149 184.75 60.522 188.999 57.4808C192.642 54.8803 191.105 52.5918 193.961 51.4113C196.807 50.2309 197.418 48.6722 197.418 48.6722Z" fill="#FFF6E1"/>
<path id="Path_22" fill-rule="evenodd" clip-rule="evenodd" d="M182.35 54.4152C181.424 56.4701 179.543 57.6709 178.571 57.2976C176.966 56.681 177.655 54.2245 177.023 52.9835C176.57 52.1031 176.277 51.9702 175.88 51.1435C175.512 50.3852 175.497 49.4751 175.591 49.224L176.847 48.6533C176.847 48.6533 178.572 50.2806 179.375 51.1435C180.376 52.2189 182.35 54.4152 182.35 54.4152Z" fill="#FFF6E1"/>
</g>
<g id="RArm">
<path id="Path_23" fill-rule="evenodd" clip-rule="evenodd" d="M196.396 87.4057C196.396 87.4057 188.882 80.7637 186.582 79.9929C184.281 79.2221 170.809 78.2961 170.894 80.0379C170.991 81.9039 178.227 81.7965 178.977 82.7146C179.726 83.6321 179.897 89.9065 182.731 90.6109C185.559 91.3154 194.039 92.5298 194.039 92.5298L214.323 104.747L215.189 93.5842L196.396 87.4057Z" fill="#FFE0D1"/>
<path id="Path_24" fill-rule="evenodd" clip-rule="evenodd" d="M216.386 59.2837C224.303 70.4425 231.062 87.4401 233.657 94.0669C236.251 100.694 233.634 110.689 222.225 108.727C220.299 108.396 215.978 107.067 215.978 107.067L213.251 91.7187L216.768 93.1934C216.768 93.1934 205.429 73.1207 202.66 67.7397C198.035 58.7531 209.413 49.4517 216.386 59.2837Z" fill="#FFB66F"/>
<path id="Path_25" fill-rule="evenodd" clip-rule="evenodd" d="M216.769 93.1926C216.769 93.1926 222.528 96.0021 221.804 94.7663C221.08 93.5304 214.596 89.2891 214.596 89.2891L216.769 93.1926Z" fill="black" fill-opacity="0.159856"/>
<path id="Path 64" fill-rule="evenodd" clip-rule="evenodd" d="M216.218 92.4857L218.102 109.082L210.654 106.718L211.778 90.4531L216.218 92.4857Z" fill="#FFEDC2"/>
</g>
<g id="RLeg">
<path id="Path_26" fill-rule="evenodd" clip-rule="evenodd" d="M117.778 202.232C117.778 202.232 117.916 213.095 108.954 217.156C99.9974 221.217 93.6161 220.973 94.4283 224.112C95.2405 227.252 118.554 227.125 120.731 224.669C122.586 222.581 126.621 203.131 127.732 204.618L117.778 202.232Z" fill="url(#paint1_linear_773_108489)"/>
<path id="Path_27" fill-rule="evenodd" clip-rule="evenodd" d="M126.137 210.796C126.137 210.796 124.253 215.409 124.087 218.205C123.921 221.001 119.633 228.951 119.633 228.951L116.246 229.375L115.937 226.493C115.937 226.493 111.034 228.58 107.958 228.913C104.883 229.247 94.3339 227.995 92.2364 226.253C90.1381 224.512 91.1982 222.061 97.2533 220.567C103.308 219.073 112.715 214.709 114.505 211.549C116.295 208.389 116.306 208.47 116.306 208.47L116.27 213.736C116.27 213.736 117.82 210.965 119.649 210.595C121.478 210.225 126.137 210.796 126.137 210.796Z" fill="#323740"/>
<path id="Path_28" fill-rule="evenodd" clip-rule="evenodd" d="M209.081 117.162C209.081 117.162 224.139 139.823 206.136 149.945C190.76 158.588 143.339 148.464 143.339 148.464C143.339 148.464 144.18 155.227 143.339 161.26C141.142 177.014 130.694 203.263 128.483 206.561C125.426 211.122 116.114 207.682 115.939 203.884C115.764 200.087 122.959 151.583 124.053 142.334C125.142 133.084 128.578 131.741 138.616 129.212C140.922 128.631 168.192 121.863 170.69 122.06C192.155 123.755 209.081 117.162 209.081 117.162Z" fill="#42474F"/>
<path id="Path_29" opacity="0.439941" fill-rule="evenodd" clip-rule="evenodd" d="M198.143 147.426C182.576 149.168 141.362 145.578 139.706 147.209C138.126 148.767 138.39 175.872 134.844 191.559C138.337 182.054 142.117 170.031 143.34 161.26C144.181 155.228 143.34 148.464 143.34 148.464L144.95 148.785C153.352 150.415 192.305 157.413 206.137 149.945C214.249 145.564 217.388 138.782 215.553 129.598C213.34 140.432 207.537 146.375 198.143 147.426Z" fill="white" fill-opacity="0.192499"/>
<ellipse id="Oval" rx="2.61633" ry="4.7911" transform="matrix(-0.97437 0.224951 0.224951 0.97437 117.415 143.576)" fill="white" fill-opacity="0.192499"/>
<ellipse id="Oval_2" rx="3.48833" ry="5.22682" transform="matrix(-0.961262 -0.275637 -0.275637 0.961262 129.626 140.526)" fill="white" fill-opacity="0.192499"/>
</g>
</g>
<g id="Example Task1">
<g id="Group 3">
<path id="Rectangle" d="M89.8068 56.1624C88.9755 54.6204 89.9734 52.7279 91.7154 52.5428L115.612 50.0044C116.588 49.9007 117.533 50.3863 118.016 51.2406L133.547 78.6734C134.388 80.1585 133.501 82.028 131.819 82.316L108.01 86.3922C106.968 86.5707 105.928 86.0639 105.426 85.1329L89.8068 56.1624Z" fill="#7596FF"/>
<path id="Rectangle_2" fill-rule="evenodd" clip-rule="evenodd" d="M90.8818 56.0269C90.0868 54.5317 91.0022 52.6987 92.6751 52.436L115.975 48.7766C117.013 48.6136 118.04 49.1265 118.533 50.054L133.459 78.1251C134.254 79.6203 133.339 81.4533 131.666 81.716L108.365 85.3754C107.328 85.5384 106.301 85.0255 105.807 84.098L90.8818 56.0269Z" fill="url(#paint2_linear_773_108489)"/>
<path id="Rectangle_3" d="M91.5762 54.4482L117.072 50.128L132.771 79.6537L107.397 83.4915L91.5762 54.4482Z" fill="white"/>
<path id="Rectangle_4" d="M98.1047 50.8508C97.8146 50.358 98.1203 49.7288 98.687 49.6522L108.325 48.3495C108.963 48.2632 109.591 48.5682 109.918 49.1235L111.546 51.8898C111.836 52.3826 111.531 53.0118 110.964 53.0884L101.326 54.3911C100.688 54.4774 100.06 54.1724 99.7328 53.6171L98.1047 50.8508Z" fill="#7367F0"/>
<path id="Path_30" fill-rule="evenodd" clip-rule="evenodd" d="M111.477 58.7413C111.817 58.5608 112.238 58.6899 112.419 59.0296C112.587 59.3451 112.488 59.7312 112.201 59.9292L112.131 59.9715L100.784 61.8722C100.445 62.0527 100.023 61.9236 99.8427 61.5839C99.675 61.2684 99.774 60.8823 100.061 60.6842L100.13 60.642L111.477 58.7413Z" fill="#A7C3FF"/>
<path id="Path_31" fill-rule="evenodd" clip-rule="evenodd" d="M114.751 64.8916C115.09 64.7112 115.512 64.8403 115.692 65.18C115.86 65.4954 115.761 65.8816 115.474 66.0796L115.405 66.1219L104.058 68.0226C103.718 68.2031 103.297 68.074 103.116 67.7343C102.948 67.4188 103.047 67.0327 103.334 66.8346L103.404 66.7924L114.751 64.8916Z" fill="#A7C3FF"/>
<path id="Path_32" fill-rule="evenodd" clip-rule="evenodd" d="M118.02 71.045C118.36 70.8645 118.781 70.9936 118.962 71.3333C119.13 71.6488 119.031 72.0349 118.744 72.233L118.674 72.2752L107.327 74.1759C106.988 74.3564 106.566 74.2273 106.386 73.8876C106.218 73.5721 106.317 73.186 106.604 72.9879L106.673 72.9457L118.02 71.045Z" fill="#A7C3FF"/>
</g>
</g>
<g id="Group 26">
<g id="Group 25">
<path id="Rectangle_5" fill-rule="evenodd" clip-rule="evenodd" d="M89.3027 117.968H106.867V229.601H89.3027V117.968Z" fill="#C5C5C5"/>
<path id="Rectangle_6" fill-rule="evenodd" clip-rule="evenodd" d="M89.3027 113.582H99.8411V229.601H89.3027V113.582Z" fill="#DBDBDB"/>
<path id="Rectangle_7" fill-rule="evenodd" clip-rule="evenodd" d="M9.39453 117.968H96.3362V151.45H26.9585V229.601H9.39453V117.968Z" fill="#C5C5C5"/>
<path id="Rectangle_8" fill-rule="evenodd" clip-rule="evenodd" d="M9.39453 117.968H19.9329V229.601H9.39453V117.968Z" fill="#DBDBDB"/>
</g>
<g id="Group 25_2">
<path id="Rectangle_9" fill-rule="evenodd" clip-rule="evenodd" d="M226.811 117.968H244.375V229.601H226.811V117.968Z" fill="#C5C5C5"/>
<path id="Rectangle_10" fill-rule="evenodd" clip-rule="evenodd" d="M146.9 117.968H233.842V159.414H164.464V229.601H146.9V117.968Z" fill="#C5C5C5"/>
<path id="Rectangle_11" fill-rule="evenodd" clip-rule="evenodd" d="M23.4316 113.582L157.336 113.582V159.332H23.4316V113.582Z" fill="#DBDBDB"/>
<path id="Rectangle_12" fill-rule="evenodd" clip-rule="evenodd" d="M144.266 117.968H154.804V159.332H144.266V117.968Z" fill="#C3C3C3"/>
<path id="Rectangle_13" fill-rule="evenodd" clip-rule="evenodd" d="M146.9 117.968H157.439V229.601H146.9V117.968Z" fill="#DBDBDB"/>
<path id="Rectangle_14" fill-rule="evenodd" clip-rule="evenodd" d="M150.457 120.161C150.457 116.527 153.402 113.582 157.036 113.582L247.464 113.582C251.097 113.582 254.043 116.527 254.043 120.161C254.043 123.794 251.097 126.739 247.464 126.739H157.036C153.402 126.739 150.457 123.794 150.457 120.161Z" fill="#C5C5C5"/>
<path id="Rectangle_15" fill-rule="evenodd" clip-rule="evenodd" d="M12.998 116.213H146.902V129.37H12.998V116.213Z" fill="#C3C3C3"/>
<path id="Rectangle_16" fill-rule="evenodd" clip-rule="evenodd" d="M0 120.161C0 116.527 2.94531 113.582 6.57853 113.582H159.644C163.277 113.582 166.222 116.527 166.222 120.161C166.222 123.794 163.277 126.739 159.644 126.739H6.57852C2.9453 126.739 0 123.794 0 120.161Z" fill="#DBDBDB"/>
</g>
</g>
<g id="Cup">
<path id="Path_33" fill-rule="evenodd" clip-rule="evenodd" d="M178.698 101.93H183.154C184.015 101.93 184.713 102.578 184.713 103.377V105.359C184.713 107.253 183.059 108.789 181.02 108.789H178.698C178.329 108.789 178.03 108.511 178.03 108.168C178.03 107.826 178.329 107.548 178.698 107.548H181.02C182.322 107.548 183.377 106.568 183.377 105.359V103.377C183.377 103.263 183.277 103.17 183.154 103.17H178.698C178.329 103.17 178.03 102.892 178.03 102.55C178.03 102.207 178.329 101.93 178.698 101.93Z" fill="#8C81FF"/>
<path id="Path_34" fill-rule="evenodd" clip-rule="evenodd" d="M163.897 100.353C162.913 100.353 162.116 101.093 162.116 102.006V106.141C162.116 109.118 164.536 111.571 167.649 111.894L167.65 112.757H175.447L175.447 111.875C178.482 111.485 180.818 109.067 180.818 106.141V102.006C180.818 101.093 180.021 100.353 179.037 100.353H163.897Z" fill="#7367F0"/>
<path id="Rectangle_17" fill-rule="evenodd" clip-rule="evenodd" d="M181.15 112.356C181.15 112.12 180.96 111.93 180.724 111.93H162.874C162.639 111.93 162.448 112.121 162.448 112.356C162.448 112.581 162.623 112.767 162.848 112.781L169.435 113.188H174.111L180.75 112.781C180.975 112.767 181.15 112.581 181.15 112.356Z" fill="#8C81FF"/>
</g>
<g id="FacingBack Laptop3">
<path id="Rectangle_18" fill-rule="evenodd" clip-rule="evenodd" d="M61.9277 112.017C61.9277 111.357 62.4631 110.821 63.1235 110.821H147.913C148.574 110.821 149.109 111.357 149.109 112.017C149.109 112.677 148.574 113.213 147.913 113.213H63.1235C62.4631 113.213 61.9277 112.677 61.9277 112.017Z" fill="#8C81FF"/>
<path id="Rectangle_19" fill-rule="evenodd" clip-rule="evenodd" d="M119.357 112.017C119.357 111.357 119.893 110.821 120.553 110.821H147.913C148.574 110.821 149.109 111.357 149.109 112.017C149.109 112.677 148.574 113.213 147.913 113.213H120.553C119.893 113.213 119.357 112.677 119.357 112.017Z" fill="#7367F0"/>
<path id="Rectangle_20" fill-rule="evenodd" clip-rule="evenodd" d="M57.8866 78.7771C57.6071 76.623 59.2845 74.7139 61.4567 74.7139H113.401C115.21 74.7139 116.738 76.0565 116.971 77.8506L120.736 106.861C121.015 109.015 119.338 110.924 117.166 110.924H65.2212C63.4121 110.924 61.8839 109.582 61.6511 107.787L57.8866 78.7771Z" fill="#7367F0"/>
<path id="Rectangle_21" fill-rule="evenodd" clip-rule="evenodd" d="M57.8866 78.7771C57.6071 76.623 59.2845 74.7139 61.4567 74.7139H111.522C113.331 74.7139 114.859 76.0565 115.092 77.8506L118.856 106.861C119.136 109.015 117.458 110.924 115.286 110.924H65.2212C63.4121 110.924 61.8839 109.582 61.6511 107.787L57.8866 78.7771Z" fill="url(#paint3_linear_773_108489)"/>
<ellipse id="Oval_3" cx="87.4071" cy="93.3945" rx="3.72272" ry="4.04762" transform="rotate(-37 87.4071 93.3945)" fill="white"/>
</g>
<g id="Group 79">
<g id="Group 86">
<path id="Path 113" fill-rule="evenodd" clip-rule="evenodd" d="M240.092 188.137C247.331 171.721 253.908 154.863 259.929 137.632C246.061 150.734 235.276 166.695 236.812 188.137H240.092Z" fill="#57E295"/>
<path id="Rectangle_22" fill-rule="evenodd" clip-rule="evenodd" d="M236.237 189.852C234.524 161.862 235.25 135.867 249.61 121.023C247.629 151.755 243.924 173.404 239.231 189.852H236.237Z" fill="#28C76F"/>
<path id="Path 112" fill-rule="evenodd" clip-rule="evenodd" d="M235.578 186.937C227.554 167.377 219.492 161.771 212.828 141.693C234.638 153.029 236.006 162.39 240.287 186.937H235.578Z" fill="#57E295"/>
<path id="Path 114" fill-rule="evenodd" clip-rule="evenodd" d="M231.26 186.937L216.867 167.378C223.818 169.364 235.437 172.58 235.437 186.937H231.26Z" fill="#28C76F"/>
<path id="Path 116" fill-rule="evenodd" clip-rule="evenodd" d="M244.723 186.937H249.524C252.575 180.551 256.875 176.155 267.278 181.484C260.459 171.073 246.468 167.923 244.723 186.937Z" fill="#57E295"/>
<path id="Path 117" fill-rule="evenodd" clip-rule="evenodd" d="M240.305 186.937H244.298C251.626 176.432 254.776 171.855 262.36 162.885C252.37 166.685 242.115 171.855 240.305 186.937Z" fill="#28C76F"/>
</g>
<g id="Group 85">
<path id="Rectangle_23" fill-rule="evenodd" clip-rule="evenodd" d="M230.268 185.422H250.439C251.207 185.422 251.83 186.043 251.83 186.809V190.623C256.931 197.038 259.481 203.454 259.481 209.869C259.481 216.086 257.303 222.304 252.947 228.521C252.687 228.893 252.261 229.114 251.807 229.114H228.9C228.446 229.114 228.02 228.893 227.76 228.521C223.404 222.304 221.227 216.086 221.227 209.869C221.227 203.575 223.682 197.281 228.591 190.986L228.877 190.623V186.809C228.877 186.043 229.5 185.422 230.268 185.422Z" fill="#7367F0"/>
<mask id="mask0_773_108489" style="mask-type:alpha" maskUnits="userSpaceOnUse" x="221" y="185" width="39" height="45">
<path id="Rectangle_24" fill-rule="evenodd" clip-rule="evenodd" d="M230.268 185.422H250.439C251.207 185.422 251.83 186.043 251.83 186.809V190.623C256.931 197.038 259.481 203.454 259.481 209.869C259.481 216.086 257.303 222.304 252.947 228.521C252.687 228.893 252.261 229.114 251.807 229.114H228.9C228.446 229.114 228.02 228.893 227.76 228.521C223.404 222.304 221.227 216.086 221.227 209.869C221.227 203.575 223.682 197.281 228.591 190.986L228.877 190.623V186.809C228.877 186.043 229.5 185.422 230.268 185.422Z" fill="white"/>
</mask>
<g mask="url(#mask0_773_108489)">
<path id="Rectangle_25" fill-rule="evenodd" clip-rule="evenodd" d="M216.355 184.222H234.439C225.782 204.317 242.859 216.217 234.439 236.236H216.355V184.222Z" fill="#857AF9"/>
</g>
</g>
</g>
</g>
<defs>
<linearGradient id="paint0_linear_773_108489" x1="162.947" y1="194.43" x2="160.877" y2="224.534" gradientUnits="userSpaceOnUse">
<stop stop-color="#FDC6C6"/>
<stop offset="1" stop-color="#FAB2B2"/>
</linearGradient>
<linearGradient id="paint1_linear_773_108489" x1="133.507" y1="196.327" x2="132.149" y2="225.31" gradientUnits="userSpaceOnUse">
<stop stop-color="#FDC6C6"/>
<stop offset="1" stop-color="#FAB2B2"/>
</linearGradient>
<linearGradient id="paint2_linear_773_108489" x1="75.7899" y1="32.2141" x2="109.155" y2="94.9653" gradientUnits="userSpaceOnUse">
<stop stop-color="#7367F0"/>
<stop offset="1" stop-color="#8CA5FF"/>
</linearGradient>
<linearGradient id="paint3_linear_773_108489" x1="52.4694" y1="55.4837" x2="52.4694" y2="110.924" gradientUnits="userSpaceOnUse">
<stop stop-color="#7367F0"/>
<stop offset="1" stop-color="#8CA5FF"/>
</linearGradient>
</defs>
</svg>
